<svg width="50" height="50" viewBox="0 0 50 50" fill="none" xmlns="http://www.w3.org/2000/svg">
<path d="M12.5 1.5625C12.5 1.1481 12.3354 0.750671 12.0424 0.457646C11.7493 0.16462 11.3519 0 10.9375 0C10.5231 0 10.1257 0.16462 9.83265 0.457646C9.53962 0.750671 9.375 1.1481 9.375 1.5625V3.125H6.25C4.5924 3.125 3.00269 3.78348 1.83058 4.95558C0.65848 6.12769 0 7.7174 0 9.375L0 12.5H50V9.375C50 7.7174 49.3415 6.12769 48.1694 4.95558C46.9973 3.78348 45.4076 3.125 43.75 3.125H40.625V1.5625C40.625 1.1481 40.4604 0.750671 40.1674 0.457646C39.8743 0.16462 39.4769 0 39.0625 0C38.6481 0 38.2507 0.16462 37.9576 0.457646C37.6646 0.750671 37.5 1.1481 37.5 1.5625V3.125H12.5V1.5625ZM50 43.75V15.625H0V43.75C0 45.4076 0.65848 46.9973 1.83058 48.1694C3.00269 49.3415 4.5924 50 6.25 50H43.75C45.4076 50 46.9973 49.3415 48.1694 48.1694C49.3415 46.9973 50 45.4076 50 43.75ZM39.0625 21.875H42.1875C42.6019 21.875 42.9993 22.0396 43.2924 22.3326C43.5854 22.6257 43.75 23.0231 43.75 23.4375V26.5625C43.75 26.9769 43.5854 27.3743 43.2924 27.6674C42.9993 27.9604 42.6019 28.125 42.1875 28.125H39.0625C38.6481 28.125 38.2507 27.9604 37.9576 27.6674C37.6646 27.3743 37.5 26.9769 37.5 26.5625V23.4375C37.5 23.0231 37.6646 22.6257 37.9576 22.3326C38.2507 22.0396 38.6481 21.875 39.0625 21.875Z" fill="#191970"/>
</svg>
