<svg width="50" height="50" viewBox="0 0 50 50" fill="none" xmlns="http://www.w3.org/2000/svg">
<rect width="50" height="50" fill="white"/>
<path d="M9.375 9.375C9.375 7.7174 10.0335 6.12769 11.2056 4.95558C12.3777 3.78348 13.9674 3.125 15.625 3.125C17.2826 3.125 18.8723 3.78348 20.0444 4.95558C21.2165 6.12769 21.875 7.7174 21.875 9.375C21.875 11.0326 21.2165 12.6223 20.0444 13.7944C18.8723 14.9665 17.2826 15.625 15.625 15.625C13.9674 15.625 12.3777 14.9665 11.2056 13.7944C10.0335 12.6223 9.375 11.0326 9.375 9.375Z" fill="#FFA500"/>
<path d="M30.5593 14.3251L30.6906 14.4251C32.0165 15.4079 33.6773 15.8264 35.3106 15.5892C36.944 15.352 38.4172 14.4783 39.4087 13.159C40.4003 11.8396 40.8297 10.1815 40.6033 8.54665C40.3769 6.9118 39.513 5.43288 38.2001 4.43263C36.8873 3.43238 35.2321 2.99202 33.5958 3.20765C31.9595 3.42327 30.4749 4.27738 29.466 5.58358C28.4571 6.88977 28.0059 8.542 28.2107 10.1797C28.4155 11.8174 29.2598 13.3076 30.5593 14.3251Z" fill="#FFA500"/>
<path d="M19.5875 18.7503C19.98 18.0071 20.5184 17.3506 21.1704 16.8203C21.8225 16.2899 22.5748 15.8965 23.3824 15.6636C24.1901 15.4308 25.0363 15.3632 25.8707 15.4649C26.705 15.5666 27.5102 15.8356 28.2382 16.2558C28.9662 16.6759 29.602 17.2385 30.1075 17.9101C30.613 18.5816 30.9778 19.3481 31.1802 20.1639C31.3826 20.9797 31.4184 21.8279 31.2854 22.6579C31.1524 23.4878 30.8534 24.2824 30.4062 24.9941C29.546 26.3632 28.1886 27.3457 26.6192 27.735C25.0498 28.1244 23.3905 27.8904 21.9901 27.0821C20.5896 26.2739 19.5569 24.9543 19.1088 23.4006C18.6608 21.847 18.8324 20.1801 19.5875 18.7503Z" fill="#FFA500"/>
<path d="M7.8125 18.75H16.1563C15.8125 19.7281 15.625 20.7813 15.625 21.875C15.625 24.275 16.5281 26.4688 18.0125 28.125H17.1875C15.5764 28.1248 14.0045 28.6225 12.6871 29.55C11.3697 30.4774 10.3712 31.7894 9.82813 33.3063C8.77917 32.8849 7.79703 32.3133 6.9125 31.6094C4.5625 29.7188 3.125 26.925 3.125 23.4375C3.125 22.1943 3.61886 21.002 4.49794 20.1229C5.37701 19.2439 6.5693 18.75 7.8125 18.75Z" fill="#FFA500"/>
<path d="M32.8125 28.125C36.2032 28.125 39.0907 30.2844 40.1688 33.3063C41.2313 32.8719 42.2157 32.3063 43.0876 31.6094C45.4375 29.7188 46.875 26.925 46.875 23.4375C46.875 22.1943 46.3812 21.002 45.5021 20.1229C44.623 19.2439 43.4308 18.75 42.1875 18.75H33.8438C34.1875 19.7281 34.375 20.7813 34.375 21.875C34.3779 24.1816 33.5275 26.4078 31.9875 28.125H32.8125Z" fill="#FFA500"/>
<path d="M37.1469 34.15C37.375 34.7 37.5 35.3063 37.5 35.9375C37.5 39.425 36.0656 42.2188 33.7125 44.1094C31.3969 45.9688 28.2906 46.875 25 46.875C21.7094 46.875 18.6031 45.9688 16.2875 44.1094C13.9375 42.2188 12.5 39.425 12.5 35.9375C12.4984 35.3215 12.6185 34.7112 12.8535 34.1417C13.0885 33.5723 13.4337 33.0549 13.8693 32.6193C14.3049 32.1837 14.8223 31.8385 15.3917 31.6035C15.9612 31.3685 16.5715 31.2484 17.1875 31.25H32.8125C33.741 31.2498 34.6486 31.5253 35.4202 32.0416C36.1919 32.5579 36.7928 33.2917 37.1469 34.15Z" fill="#FFA500"/>
</svg>
