<svg width="40" height="32" viewBox="0 0 40 32" fill="none" xmlns="http://www.w3.org/2000/svg">
<g clip-path="url(#clip0)">
<path d="M33.8839 3.04641C31.2606 1.81902 28.4854 0.946906 25.6317 0.453125C25.2762 1.09578 24.8609 1.96016 24.5745 2.64781C21.4976 2.18516 18.449 2.18516 15.4287 2.64781C15.1425 1.96031 14.7178 1.09578 14.359 0.453125C11.5024 0.947133 8.72489 1.82147 6.10042 3.05281C0.877924 10.9448 -0.537857 18.6406 0.169955 26.2275C3.63386 28.8142 6.99074 30.3856 10.291 31.4139C11.1113 30.286 11.8363 29.0918 12.4587 27.8438C11.2737 27.3926 10.1314 26.8367 9.04527 26.1825C9.33109 25.9706 9.61019 25.7499 9.88214 25.5205C16.4637 28.5989 23.615 28.5989 30.1181 25.5205C30.3912 25.7483 30.6702 25.9691 30.9548 26.1825C29.8669 26.8384 28.7224 27.3955 27.5351 27.847C28.161 29.1002 28.8848 30.2955 29.7028 31.417C33.0062 30.3889 36.3662 28.8175 39.8301 26.2275C40.6607 17.4325 38.4114 9.80719 33.8839 3.04625V3.04641ZM13.3554 21.5617C11.3796 21.5617 9.75933 19.7172 9.75933 17.4711C9.75933 15.225 11.3451 13.3773 13.3554 13.3773C15.3659 13.3773 16.986 15.2217 16.9515 17.4711C16.9546 19.7172 15.3659 21.5617 13.3554 21.5617ZM26.6446 21.5617C24.6689 21.5617 23.0487 19.7172 23.0487 17.4711C23.0487 15.225 24.6343 13.3773 26.6446 13.3773C28.6551 13.3773 30.2753 15.2217 30.2407 17.4711C30.2407 19.7172 28.6551 21.5617 26.6446 21.5617Z" fill="#5865F2"/>
</g>
<defs>
<clipPath id="clip0">
<rect width="40" height="31.0938" fill="white" transform="translate(0 0.453125)"/>
</clipPath>
</defs>
</svg>
