<svg width="133" height="105" viewBox="0 0 133 105" fill="none" xmlns="http://www.w3.org/2000/svg">
<g clip-path="url(#clip0)">
<path d="M99.75 0H33.25C28.8408 0 24.6121 1.38281 21.4943 3.84422C18.3766 6.30564 16.625 9.64403 16.625 13.125V91.875C16.625 95.356 18.3766 98.6944 21.4943 101.156C24.6121 103.617 28.8408 105 33.25 105H99.75C104.159 105 108.388 103.617 111.506 101.156C114.623 98.6944 116.375 95.356 116.375 91.875V13.125C116.375 9.64403 114.623 6.30564 111.506 3.84422C108.388 1.38281 104.159 0 99.75 0ZM55.2449 37.0519C55.6313 36.7468 56.0901 36.5048 56.595 36.3397C57.0999 36.1746 57.641 36.0896 58.1875 36.0896C58.734 36.0896 59.2751 36.1746 59.78 36.3397C60.2849 36.5048 60.7437 36.7468 61.1301 37.0519C61.5166 37.3569 61.8231 37.7191 62.0322 38.1177C62.2414 38.5163 62.349 38.9436 62.349 39.375C62.349 39.8064 62.2414 40.2337 62.0322 40.6323C61.8231 41.0309 61.5166 41.393 61.1301 41.6981L47.4394 52.5L61.1301 63.3019C61.9106 63.918 62.349 64.7537 62.349 65.625C62.349 66.4963 61.9106 67.332 61.1301 67.9481C60.3497 68.5643 59.2912 68.9104 58.1875 68.9104C57.0838 68.9104 56.0253 68.5643 55.2449 67.9481L38.6199 54.8231C38.2328 54.5183 37.9257 54.1562 37.7162 53.7576C37.5067 53.359 37.3988 52.9316 37.3988 52.5C37.3988 52.0684 37.5067 51.641 37.7162 51.2424C37.9257 50.8438 38.2328 50.4817 38.6199 50.1769L55.2449 37.0519ZM77.7551 37.0519L94.3801 50.1769C94.7672 50.4817 95.0743 50.8438 95.2838 51.2424C95.4933 51.641 95.6012 52.0684 95.6012 52.5C95.6012 52.9316 95.4933 53.359 95.2838 53.7576C95.0743 54.1562 94.7672 54.5183 94.3801 54.8231L77.7551 67.9481C77.3687 68.2532 76.9099 68.4952 76.405 68.6603C75.9001 68.8254 75.359 68.9104 74.8125 68.9104C74.266 68.9104 73.7249 68.8254 73.22 68.6603C72.7151 68.4952 72.2563 68.2532 71.8699 67.9481C71.4834 67.643 71.1769 67.2809 70.9678 66.8823C70.7586 66.4837 70.651 66.0564 70.651 65.625C70.651 65.1936 70.7586 64.7663 70.9678 64.3677C71.1769 63.9691 71.4834 63.6069 71.8699 63.3019L85.5606 52.5L71.8699 41.6981C71.0894 41.082 70.651 40.2463 70.651 39.375C70.651 38.5037 71.0894 37.668 71.8699 37.0519C72.6503 36.4357 73.7088 36.0896 74.8125 36.0896C75.9162 36.0896 76.9747 36.4357 77.7551 37.0519Z" fill="white"/>
</g>
<defs>
<clipPath id="clip0">
<rect width="133" height="105" fill="white"/>
</clipPath>
</defs>
</svg>
