<svg width="50" height="50" viewBox="0 0 50 50" fill="none" xmlns="http://www.w3.org/2000/svg">
<rect width="50" height="50" fill="white"/>
<path d="M31.25 45.8479H10.4167V41.6812H31.25V45.8479ZM45.8334 8.33334L35.9688 20.7396L35.5104 21.3021L23.7813 36.2813C23.3941 36.6684 22.9346 36.9755 22.4288 37.185C21.9229 37.3945 21.3808 37.5023 20.8334 37.5023C20.2859 37.5023 19.7438 37.3945 19.2379 37.185C18.7321 36.9755 18.2726 36.6684 17.8854 36.2813C17.4983 35.8941 17.1912 35.4345 16.9817 34.9287C16.7722 34.4229 16.6644 33.8808 16.6644 33.3333C16.6644 32.7859 16.7722 32.2437 16.9817 31.7379C17.1912 31.2321 17.4983 30.7725 17.8854 30.3854L45.8334 8.33334ZM5.51043 15.0708C2.50113 19.8907 1.41879 25.6676 2.47918 31.25H4.16668V29.1667C4.14398 25.0646 5.37217 21.053 7.68752 17.6667L5.51043 15.0708ZM25 4.16667C21.8139 4.16597 18.663 4.83217 15.7499 6.12243C12.8368 7.41268 10.226 9.29842 8.08543 11.6583L10.4688 14.5C13.2969 11.8995 16.9914 10.444 20.8334 10.4167C24.696 10.4436 28.4092 11.9134 31.2438 14.5375L38.6396 8.70001C34.7013 5.75679 29.9166 4.16651 25 4.16667ZM39.2292 23.3333L38.7438 23.9313L37.2271 25.8688C37.4044 26.9592 37.4956 28.0619 37.5 29.1667V31.25H47.5209C48.5095 26.0362 47.6373 20.6409 45.0563 16.0042L39.2292 23.3333Z" fill="#FF0000"/>
</svg>
