<svg width="50" height="50" viewBox="0 0 50 50" fill="none" xmlns="http://www.w3.org/2000/svg">
<rect width="50" height="50" fill="white"/>
<path d="M19.2375 6.605C20.7 5.605 22.595 5 25 5C27.405 5 29.3 5.605 30.7625 6.605C32.22 7.5975 33.17 8.9275 33.7875 10.255C34.6125 12.02 34.8775 13.8475 34.9625 15.0425C36.58 15.1625 38.2375 15.55 39.6 16.46C41.395 17.6575 42.5 19.635 42.5 22.5C42.5 25.425 41.405 27.415 39.59 28.6C37.8775 29.72 35.7025 30 33.75 30H16.25C14.275 30 12.1075 29.6775 10.4 28.54C8.605 27.3425 7.5 25.365 7.5 22.5C7.5 19.635 8.605 17.6575 10.4 16.46C11.7625 15.55 13.42 15.1625 15.04 15.0425C15.1225 13.8475 15.385 12.02 16.21 10.2525C16.8693 8.78439 17.9148 7.52285 19.235 6.6025L19.2375 6.605Z" fill="#0000FF"/>
<path d="M25 37.5C25 38.8261 24.4732 40.0979 23.5355 41.0356C22.5979 41.9732 21.3261 42.5 20 42.5C18.6739 42.5 17.4021 41.9732 16.4645 41.0356C15.5268 40.0979 15 38.8261 15 37.5C15 36.1739 15.5268 34.9022 16.4645 33.9645C17.4021 33.0268 18.6739 32.5 20 32.5C21.3261 32.5 22.5979 33.0268 23.5355 33.9645C24.4732 34.9022 25 36.1739 25 37.5Z" fill="#0000FF"/>
<path d="M12.5 41.25C12.5 41.7424 12.403 42.2301 12.2145 42.685C12.0261 43.14 11.7499 43.5534 11.4016 43.9016C11.0534 44.2498 10.64 44.5261 10.1851 44.7145C9.73009 44.903 9.24245 45 8.75 45C8.25754 45 7.76991 44.903 7.31494 44.7145C6.85996 44.5261 6.44657 44.2498 6.09835 43.9016C5.75013 43.5534 5.47391 43.14 5.28545 42.685C5.097 42.2301 5 41.7424 5 41.25C5 40.2554 5.39509 39.3016 6.09835 38.5983C6.80161 37.8951 7.75544 37.5 8.75 37.5C9.74456 37.5 10.6984 37.8951 11.4016 38.5983C12.1049 39.3016 12.5 40.2554 12.5 41.25Z" fill="#0000FF"/>
</svg>
